Coordinates
version=1
nRows=10
nColumns=63
inDegrees=yes

Units are S.I. units (second, meters, Newtons, ...)
If the header above contains a line with 'inDegrees', this indicates whether rotational values are in degrees (yes) or radians (no).

endheader
time	pelvis_tilt	pelvis_list	pelvis_rotation	pelvis_tx	pelvis_ty	pelvis_tz	hip_flexion_r	hip_adduction_r	hip_rotation_r	knee_angle_r	knee_angle_r_beta	ankle_angle_r	subtalar_angle_r	mtp_angle_r	hip_flexion_l	hip_adduction_l	hip_rotation_l	knee_angle_l	knee_angle_l_beta	ankle_angle_l	subtalar_angle_l	mtp_angle_l	L5_S1_Flex_Ext	L5_S1_Lat_Bending	L5_S1_axial_rotation	L4_L5_Flex_Ext	L4_L5_Lat_Bending	L4_L5_axial_rotation	L3_L4_Flex_Ext	L3_L4_Lat_Bending	L3_L4_axial_rotation	L2_L3_Flex_Ext	L2_L3_Lat_Bending	L2_L3_axial_rotation	L1_L2_Flex_Ext	L1_L2_Lat_Bending	L1_L2_axial_rotation	L1_T12_Flex_Ext	L1_T12_Lat_Bending	L1_T12_axial_rotation	Abs_r3	Abs_r2	Abs_r1	Abs_t1	Abs_t2	neck_flexion	neck_bending	neck_rotation	arm_flex_r	arm_add_r	arm_rot_r	elbow_flex_r	pro_sup_r	wrist_flex_r	wrist_dev_r	arm_flex_l	arm_add_l	arm_rot_l	elbow_flex_l	pro_sup_l	wrist_flex_l	wrist_dev_l
0.000000	2.158580	-3.086639	96.966551	0.230728	1.019068	0.366131	-2.424257	3.099889	-2.263127	2.571360	0.044879	28.150306	-5.870452	0.000000	-1.348510	-2.637432	2.039197	4.571474	0.079787	30.743327	3.087952	0.000000	0.391949	0.367686	-0.860400	0.727888	0.489022	-0.914175	0.643933	0.893991	-0.914175	0.447958	0.893991	-0.752850	0.363964	0.749785	-0.699075	0.223960	0.569545	-0.645300	2.799652	4.159334	-4.785286	0.000000	0.000000	28.197366	-2.375170	2.343276	22.851741	5.505137	131.986329	31.291431	88.595080	-13.001943	-0.929345	17.553424	3.721026	93.447863	27.241911	84.132991	22.070390	10.526176
0.016667	2.189104	-3.012577	98.383916	0.229614	1.019224	0.365361	-2.485893	3.265012	-2.624522	2.713999	0.047368	28.064844	-6.775993	0.000000	-1.136037	-2.772318	1.605736	4.811173	0.083971	30.418646	5.002517	0.000000	0.391470	0.354324	-1.040117	0.726999	0.471251	-1.105124	0.643146	0.861504	-1.105124	0.447411	0.861504	-0.910102	0.363519	0.722538	-0.845095	0.223686	0.548849	-0.780088	2.796232	4.008189	-5.784819	0.000000	0.000000	28.152812	-2.816182	1.690625	22.681284	5.129534	129.443875	31.164368	88.552119	-10.338031	-0.711788	17.393833	3.573918	91.780629	27.609360	81.805490	21.045434	11.587471
0.033333	2.215011	-2.940810	99.517266	0.228693	1.019400	0.364684	-2.562306	3.397242	-3.002960	2.805053	0.048957	28.043223	-7.404453	0.000000	-0.983104	-2.881565	1.234346	5.000606	0.087277	30.158197	6.560096	0.000000	0.388945	0.344642	-1.180649	0.722311	0.458374	-1.254440	0.638998	0.837963	-1.254440	0.444526	0.837963	-1.033068	0.361175	0.702795	-0.959277	0.222243	0.533851	-0.885487	2.778198	3.898664	-6.566415	0.000000	0.000000	28.114580	-3.190827	1.177708	22.518757	4.873347	127.632251	31.039660	88.525394	-8.443570	-0.595616	17.276720	3.463865	90.692877	27.878514	79.858765	20.313702	12.474714
0.050000	2.235653	-2.873331	100.389523	0.227954	1.019587	0.364103	-2.648518	3.498218	-3.391070	2.850674	0.049754	28.078843	-7.784660	0.000000	-0.881734	-2.966130	0.921067	5.144845	0.089794	29.956405	7.788056	0.000000	0.384750	0.338084	-1.285320	0.714518	0.449651	-1.365652	0.632105	0.822017	-1.365652	0.439730	0.822017	-1.124655	0.357278	0.689420	-1.044322	0.219846	0.523692	-0.963990	2.748227	3.824470	-7.148562	0.000000	0.000000	28.082383	-3.501626	0.792137	22.367503	4.721043	126.466239	30.919039	88.513073	-7.226699	-0.567199	17.196067	3.386511	90.098682	28.061642	78.268925	19.831843	13.198561
0.066667	2.250380	-2.812130	101.023610	0.227388	1.019774	0.363619	-2.739555	3.569576	-3.781479	2.857014	0.049864	28.165099	-7.945447	0.000000	-0.823948	-3.026970	0.661940	5.248961	0.091612	29.807695	8.713766	0.000000	0.379257	0.334092	-1.357453	0.704318	0.444343	-1.442294	0.623081	0.812312	-1.442294	0.433453	0.812312	-1.187771	0.352178	0.681281	-1.102931	0.216707	0.517509	-1.018090	2.708994	3.779319	-7.549746	0.000000	0.000000	28.055934	-3.751096	0.521527	22.230866	4.657086	125.860621	30.804236	88.513324	-6.595555	-0.612908	17.145856	3.337505	89.912118	28.171014	77.012079	19.556509	13.769667
0.083333	2.258544	-2.759197	101.442447	0.226984	1.019954	0.363234	-2.830439	3.612956	-4.166816	2.830225	0.049397	28.295392	-7.915643	0.000000	-0.801769	-3.065041	0.453006	5.318024	0.092817	29.706490	9.364593	0.000000	0.372842	0.332112	-1.400373	0.692405	0.441709	-1.487897	0.612542	0.807498	-1.487897	0.426121	0.807498	-1.225327	0.346221	0.677243	-1.137803	0.213042	0.514442	-1.050280	2.663174	3.756920	-7.788456	0.000000	0.000000	28.034945	-3.941757	0.353492	22.112192	4.665940	125.730177	30.696983	88.524315	-6.458278	-0.719111	17.120068	3.312493	90.047263	28.218899	76.064340	19.444349	14.198686
0.100000	2.259495	-2.716523	101.668958	0.226733	1.020115	0.362951	-2.916193	3.629996	-4.539707	2.776459	0.048458	28.463117	-7.724081	0.000000	-0.807217	-3.081299	0.290305	5.357107	0.093499	29.647217	9.767905	0.000000	0.365880	0.331588	-1.417405	0.679475	0.441012	-1.505992	0.601104	0.806222	-1.505992	0.418164	0.806222	-1.240229	0.339756	0.676174	-1.151641	0.209064	0.513629	-1.063054	2.613443	3.750986	-7.883180	0.000000	0.000000	28.019130	-4.076128	0.275645	22.014824	4.732072	125.989690	30.599012	88.544214	-6.723005	-0.872178	17.112685	3.307120	90.418189	28.217567	75.401816	19.452013	14.496276
0.116667	2.252585	-2.686099	101.726063	0.226623	1.020249	0.362770	-2.991840	3.622334	-4.892781	2.701869	0.047157	28.661674	-7.399592	0.000000	-0.832314	-3.076701	0.169879	5.371280	0.093747	29.624299	9.951070	0.000000	0.358745	0.331962	-1.411871	0.666225	0.441510	-1.500113	0.589381	0.807134	-1.500113	0.410009	0.807134	-1.235387	0.333130	0.676938	-1.147145	0.204987	0.514210	-1.058903	2.562477	3.755226	-7.852405	0.000000	0.000000	28.008203	-4.156726	0.275599	21.942106	4.839946	126.553942	30.512054	88.571189	-7.297877	-1.058479	17.117689	3.317034	90.938973	28.179288	75.000618	19.536153	14.673089
0.133333	2.237163	-2.669916	101.636686	0.226644	1.020347	0.362695	-3.052406	3.591607	-5.218667	2.612606	0.045599	28.884460	-6.971006	0.000000	-0.869081	-3.052203	0.087769	5.365614	0.093648	29.632161	9.941455	0.000000	0.351811	0.332681	-1.387097	0.653348	0.442465	-1.473791	0.577990	0.808880	-1.473791	0.402085	0.808880	-1.213710	0.326692	0.678403	-1.127016	0.201025	0.515323	-1.040323	2.512950	3.763351	-7.714618	0.000000	0.000000	28.001874	-4.186071	0.340969	21.897383	4.974027	127.337713	30.437840	88.603409	-8.091030	-1.264385	17.129061	3.337880	91.523690	28.116331	74.836857	19.653419	14.739783
0.150000	2.212582	-2.669964	101.423748	0.226787	1.020399	0.362726	-3.092912	3.539455	-5.509991	2.514823	0.043892	29.124872	-6.467154	0.000000	-0.909542	-3.008761	0.040015	5.345181	0.093291	29.665228	9.766428	0.000000	0.345453	0.333187	-1.346406	0.641541	0.443138	-1.430557	0.567545	0.810110	-1.430557	0.394819	0.810110	-1.178106	0.320788	0.679434	-1.093955	0.197392	0.516106	-1.009805	2.467539	3.769073	-7.488309	0.000000	0.000000	27.999859	-4.166682	0.459368	21.883998	5.118780	128.255785	30.378104	88.639040	-9.010603	-1.476263	17.140785	3.365305	92.086414	28.040966	74.886643	19.760460	14.707011
